<svg width="222" height="17" viewBox="0 0 222 17" fill="none" xmlns="http://www.w3.org/2000/svg">
<path d="M108.176 14.1591C107.487 14.1591 106.882 13.995 106.362 13.6669C105.844 13.3388 105.44 12.8797 105.148 12.2898C104.86 11.6998 104.716 11.0104 104.716 10.2216C104.716 9.42614 104.86 8.73177 105.148 8.13849C105.44 7.54522 105.844 7.08452 106.362 6.75639C106.882 6.42827 107.487 6.2642 108.176 6.2642C108.866 6.2642 109.469 6.42827 109.986 6.75639C110.506 7.08452 110.911 7.54522 111.199 8.13849C111.491 8.73177 111.636 9.42614 111.636 10.2216C111.636 11.0104 111.491 11.6998 111.199 12.2898C110.911 12.8797 110.506 13.3388 109.986 13.6669C109.469 13.995 108.866 14.1591 108.176 14.1591ZM108.176 13.1051C108.7 13.1051 109.131 12.9709 109.469 12.7024C109.807 12.4339 110.057 12.081 110.219 11.6435C110.382 11.206 110.463 10.732 110.463 10.2216C110.463 9.71117 110.382 9.23556 110.219 8.79474C110.057 8.35393 109.807 7.99763 109.469 7.72585C109.131 7.45407 108.7 7.31818 108.176 7.31818C107.652 7.31818 107.222 7.45407 106.884 7.72585C106.545 7.99763 106.295 8.35393 106.133 8.79474C105.97 9.23556 105.889 9.71117 105.889 10.2216C105.889 10.732 105.97 11.206 106.133 11.6435C106.295 12.081 106.545 12.4339 106.884 12.7024C107.222 12.9709 107.652 13.1051 108.176 13.1051ZM113.427 14V6.36364H114.561V7.51705H114.64C114.78 7.1392 115.032 6.83262 115.396 6.5973C115.761 6.36198 116.172 6.24432 116.629 6.24432C116.715 6.24432 116.823 6.24597 116.952 6.24929C117.081 6.2526 117.179 6.25758 117.246 6.2642V7.45739C117.206 7.44744 117.115 7.43253 116.972 7.41264C116.833 7.38944 116.685 7.37784 116.53 7.37784C116.158 7.37784 115.827 7.45573 115.535 7.61151C115.247 7.76397 115.018 7.97609 114.849 8.24787C114.684 8.51634 114.601 8.82292 114.601 9.16761V14H113.427Z" fill="#939393"/>
<line y1="8.5" x2="84" y2="8.5" stroke="#939393"/>
<line x1="138" y1="8.5" x2="222" y2="8.5" stroke="#939393"/>
</svg>
